<?xml version="1.0" encoding="UTF-8"?>
<svg id="Layer_1" data-name="Layer 1" xmlns="http://www.w3.org/2000/svg" viewBox="0 0 452.69 345.72">
  <defs>
    <style>
      .cls-1 {
        fill: #282727;
      }

      .cls-2 {
        fill: #fff;
      }

      .cls-3 {
        fill: #fbbe03;
      }
    </style>
  </defs>
  <g id="Generative_Object" data-name="Generative Object">
    <g>
      <path class="cls-1" d="M182.77,103.65l-28.44-15.73v-.61l71.61-40.96L307.73.01l73.59,41.22,71.38,40.31-.02,183.55-20.2,11.24c-1.1-2.29-2.98-3.82-4.55-5.6l-4.29-4.89-4.23-4.83-3.66-4.25-4.21-4.83-3.67-4.25-4.8-5.43-4.26-4.85-4.8-5.43-3.68-4.25c-1.41-1.62-3.04-2.94-4.49-4.96l20.93-10.67,8.39-4.42.03-103.33-54.5-30.27-51.35-28.51c-1.51-.49-2.68-1.85-4.14-1.01l-40.04,22.92-6.68-3.81c-2.36-1.35-3.81-1.28-6.14,0l-26.6,14.6-39.09,21.91c-1.59.89-2.95,2.31-3.86,3.5Z"/>
      <path class="cls-2" d="M304.63,91.48c.29.14.36.26.03.47l-.29,43.76-12.06,6.32c-14.89-9.66-29.12-19.62-45.04-25.89-.32-.22-.33-.29.02-.46,1.71.58,2.89-.84,4.5-1.7l45.18-24.32,7.36-4.2c.32,2.25-.27,4.16.3,6.01Z"/>
      <path class="cls-1" d="M306.23,160.54c-1.49,10.14-.04,20.69-.73,31.34l-13.04,4.5-12.46,5.02c-.96.38-1.15,1.03-1.61,1.51-.71.09-.61-.51-.61-1.24v-51.94c-6.32-4.99-8.75-3.21-12.86-8.06-6.82-8.06-16.38-13.24-26.34-16.38-13.65-4.3-10.28-4.25-22.47.21-22.21,8.12-26.65,16.06-28.35,17.01l-4.33,2.41c-2.61-1.59-12.25-5.97-13.97-6.17-.72-.97.95-1.63,1.66-2.1,16.58-11.13,34.13-20.37,52.2-27.55,2.07-.32,3.46-.38,5.45.42l15.24,6.15c16.53,6.67,31.35,16.39,46.35,26.12,1.51.98,3.06.76,4.4.05l10.25-5.53.07-43.4,63.09,34.71-11.02,5.79-18.36,9.49-16.7,8.66-14.05,7.18c-.78.4-1.69,1.02-1.81,1.8Z"/>
      <path class="cls-3" d="M277.04,198.81c-.36.31-.71-.03-1.07-.11-1.76-1.74-4.35-2.16-6.65-3.75v-47.7c0-.52-.24-.73-.56-.61,0-.16.15-.33.05-.51.53.32.96-.41,1.38-.1,1.22.88,5.17,2.79,7.01,4.32l-.17,48.46Z"/>
      <g>
        <path class="cls-1" d="M224.53,275.52l-.07,22.21c0,.29-.72.68-.9.8-.32.2-.97-.41-1.43-.55l-10.9-3.09c-10.61-5.91-21.86-10.95-31.86-18.22.3.17.5-.16.38-.24-.43-.31-.46-.7-.6-.89l-3.12-4.18-4.76-9.15c-.29-1.61-.38-3.52-1.18-4.84-.12-22.76,11.09-37.6,30.75-48.63,1.37-.77,3.04-1.17,3.94-2.94-17.12-15.24-16.76-37.07-2.58-53.81,5.32-6.28,12.57-10.58,20.55-12.54,7.42-1.83,14.75-.39,21.3,3.61,13.75,8.38,20.42,25.32,16.19,41.05-3.12,11.58-11.94,20.73-22.52,26.59l-27.21,15.05c-2.9,1.61-5.23,3.36-7.8,5.58-10.36,8.92-12.7,24.88-1.95,34.73,6.55,6,16.41,6.69,23.81,9.47Z"/>
        <path class="cls-3" d="M231.79,161.14c.35,1.29,2,1.42,3.18,2.43,4.03,3.45,6.4,9.04,5.71,14.24-.74,5.55-4.04,9.69-8.36,12.89-2.21,1.63-4.8,2.36-6.57,4.33h-.61c-2.32-2.5-6.05-4-9.17-7.9-3.67-4.58-5.5-10.12-3.42-16.39,1.43-4.32,5.86-9.31,11.25-10.17,2.87-.46,5.35.17,8,.57Z"/>
      </g>
      <path class="cls-2" d="M220.9,221.05l22.39,28.44v.61l-14.37,18.27c-2.93,3.73-7.1,2.87-12.26,2.91-1.15,0-2.5.21-3.63,0-6.26-1.16-12.2-5.05-15.82-10.77-5.23-8.25-3.05-18.35,3.04-25.49,5.14-6.03,14.46-11.02,20.65-13.97Z"/>
      <path class="cls-1" d="M306.83,345.72c-25.37-15.43-51.92-29.17-77.86-44.27-.91-.53-1.36-.57-2.16-.67-.19-.19-.2-.36.04-.5,1.63.51,2.85-.9,4.32-1.71l23.25-12.87c1.84,2.04,3.6,3.26,5.68,4.59l42.43,27.05c.64.41,1.27.73,1.57,1.06.34.35,1.86.91,1.94-.03.42-4.88.04-9.7.17-14.41l28.33-14.71.15-57.97c1.81,1.51,3.21,3.21,4.84,4.95l9.04,9.64,9.08,9.69,9.65,10.28,7.9,8.48,8.46,9.07,7.88,8.41c1.03,2.04,3.1,2.99,4.3,4.85l-89.04,49.07Z"/>
      <path class="cls-2" d="M306.13,302.15c0,.23-.14.34.02.61.2.34.08.83.07,1.21-.07-.05-.53-.04-.53.12l-.16,14.07-25.77-16.14-19.08-12.39c-1.99-1.29-3.95-2.38-5.6-4.57,8.05-4.32,14.68-10.38,19.67-17.93,2.29-3.46-1.77-5.36-4.79-9.76-1.13-1.65-2.74-2.53-3.59-4.49l20.07-11.65c1.01-.59,2.65-.84,2.83-2,1.08-.24,1.97-.33,3.26-.95l12.93-6.24.66,70.13Z"/>
    </g>
    <g>
      <path class="cls-3" d="M225.74,44.95c-23.43,13.36-46.52,27.74-70.75,40.41-.97.51-1.6,1.35-1.87,1.95-.2,0-.42-.05-.61,0-1.29-1.11-2.74-2.57-4.84-2.44v52.61c3.7,2.04,7.22,3.62,10.89,4.9.7.98,2.19,1.19,3.03.61-.35,1.02,7.78-4.29,6.66-4.24.4.02.81-.05,1.21,0,.92,1.22,11.57,5.31,13.21,6.6-.3.23-.68.52-1.11.61-1.73.39-7.67,4.15-7.83,4.61-.31.86.12,1.87,1.18,2.06l8.47,4.34-.02,40.15-36.29-19.65v-17.53s-19.29-9.81-19.29-9.81l-41.76-21.04c-.8-.4-1.94-.67-2.48-.64-.25-1.17-2.18-1.12-3.03-1.21.06-.99-4.85-3.11-5.45-3.03-.77-.38-1.78-1.79-3.03-1.21-.11-.59-.59-1.04-.98-1.2-.48-.19-1.62.03-1.74.6-.08.41-.05,1.17-.05,1.71l-.31,25.17c-2.49,2.04-6.4,1.94-8.41,4.59-.99-.52-1.32.44-1.82.61-1.16.38-7.9,2.75-7.87,3.63l-13.24,5.67-.17,93.31c0,1.13-1.06,2.07.07,3.42.74,1.42-1.74,3.69.02,4.71.02.44-.07.91.28,1.24.41.4.73.5,1.42.87l92.5,49.99,11.26,5.84c.71.37,1,1.2,1.95.75,2.6-1.23-2.08-1.67,5.87-6.56l33.7-20.74c4.49-2.76,9.02-4.73,12.78-7.79,4.26,2.6,9.34,4.02,13.92,6.05.17.07,14.03,6.03,13.91,3.43-.37-7.71.8-15.48-.59-22.79-.07-.36.06-.7,0-.94-.06-.21-11.89-2.46-11.5-3.3,1.13.21,2.48,0,3.63,0,2.79,1.32,6.3.58,9.83-.05,2.07-.37,3.61-2.86,4.88-4.59,4.16-5.64,8.79-10.67,11.92-16.54.7.04.75-.62,0-.61-5.82-9.24-13.27-17.48-20-26.6-.69-.94-1.21-2.16-2.39-1.84,1.61-.77,3.45-2.37,5.24-3.2l7.46-3.45,15.12,24.87c.53.88,1.91.88,2.45.01,4.17-6.67,8.25-13.04,10.87-20.04,1,.08,3.1-7.68,4.83-9.67,1.1-1.27,9.51-4.59,11.51-6.66,8.96-3.98,17.96-7.7,27.83-10.46v-31.9s16.81-8.58,16.81-8.58l16-8.27,19.08-9.87c3.11-1.61,6.06-3.15,9.24-4.72.86-.42,1.27-.83,1.26-1.56-.01-.69-.6-1.03-1.43-1.48l-62.52-34.1c.33-.2.26-.33-.03-.47.87-1.94.15-4.18.38-6.64-2.26.04-3.6,1.41-5.54,2.47l-52.18,28.38c-.35.16-.34.24-.02.46l-21.39-8.41c-1.24-.49-2.49.82-2.56,1.37l-2.53.39-16.23,6.87c-5.06-4.27-11.56-6.68-17.55-10.39-1.41-.88-2.68-1.94-4.24-1.72v-.61c.74.15,3.95-2.3,6.05-3.63-.23.77.21,1.81,0,0,9.28-5.87,18.99-10.97,28.95-16.42l37.55-20.58,5,2.49c1.56,1.15,3.17,2.42,5.45,2.52l40.55-23.23,108.25,60.1-.03,102.11-8.34,4.55-20.54,10.3c-1.01,1.72,1.43,3.4,4.07,6.45l3.67,4.24,4.8,5.43,4.26,4.85,4.8,5.43,3.67,4.25,4.21,4.83,3.66,4.25,4.23,4.83,4.29,4.89c1.61,1.83,3.62,3.33,4.42,5.61.23.26.34.28-.02.47-1.42-.34-2.52.95-3.86,1.69l-30.86,17c-.17.07-.42-.04-.61,0-1.05-1.8-2.71-3.15-4.3-4.86l-7.82-8.45-8.46-9.08-7.9-8.48-9.65-10.28-9.09-9.68-9.06-9.62c-1.75-1.85-2.87-4.03-5.97-5.32l-.12,58.2-25.97,13.62c-.74.39-1.28.8-1.91.6-.16-.27-.02-.38-.02-.61l.03-71.19-15.84,7.44c-.6.28-.94.19-1.03.82-3.5.77-18.82,10.31-23.51,13.1-1.3,1.32,8.14,10.34,9.25,12.72-5.11,8.64-12.09,14.81-20.33,19.48l-27.83,15.77c-.25.14-.23.3-.04.5-.21-.24-.3-.15-.51,0-.13.09-.39.01-.56.11-26.77,14.7-53.73,29.29-79.88,44.83L0,265.14V81.42s57.05-32.12,57.05-32.12L145.06,0l77.52,43.79c1.28.72,1.98,1.49,3.16,1.16Z"/>
      <path class="cls-2" d="M152.52,87.31c.19-.05.41,0,.61,0h1.21v.61c-.3.04-.7-.25-1.21.27l26.03,14.28c1.23.67,2.3,1.96,3.62,1.78,6.99,4.38,14.33,8.47,21.79,12.1-2.32.98-35.82,18.68-36.31,22.39-1.2-.05-6.68,3.55-6.66,4.24-1.09.09-1.87-.99-3.03-.61-2.87-2.45-6.83-3.21-10.27-5.55l-.02-51.4c1.69.62,2.61,2.33,4.24,1.88Z"/>
      <path class="cls-2" d="M72.03,123.02c.47,1.04,2.1,1.14,3.03,1.21.96,1.35,3.84,2.85,5.45,3.03-.08,1.4-5.51,1.96-10.25,4.91-.13.08-.28.1-.43.06.05-3.28-.74-6.58.34-10.03.61.79,1.46.73,1.88.82Z"/>
      <g>
        <path class="cls-2" d="M268.82,146.13c.1.18-.05.34-.05.51l-.07,48.85c2.48,1.53,4.79,2.65,7.28,3.2.36.08.71.42,1.07.11,0,1.38.73,3.63-.3,4.38-3.55,2.59-9.18,2.74-10.66,6.06l-2.81,6.31c-.62,1.38-.85,2.67-1.22,3.67-.84-.06-1.06.97-1.39,1.61l-4.34,8.44c-1.82,3.54-3.97,6.77-6.3,10.12l-16.42-25.02c7.81-3.62,14.87-8.8,20.49-16.3,12.41-16.56,10.2-39.99-5.93-53.21-14.45-11.84-34.93-6.99-46.6,6.47-13.62,15.71-14.8,39.67,2.26,54.71-6.31,3.62-12.04,6.83-17.32,11.54-9.88,8.81-15.61,20.32-16.79,33.34-.64,7.11-.01,14.15-.29,21.61l14.72,8.28,13.16,8.01c-2.54.6-4.77,2.12-7.3,3.66l-39.83,24.22c-7.27,4.42-2.81,4.43-5.85,6.59-.16.11-.44-.68-.67-.8l-11.3-5.79-90.97-49.13c-1.53-.83-2.63-1.54-3.83-2.36-.72-1.38,1.36-3.3.5-4.69-1.02-1.64.04-2.35.04-3.83l.07-92.36c3.74-1.5,7.01-2.99,10.56-4.88.68-.36,2.18-.12,2.13-1.36-2.23.96,9.66-3.11,7.87-3.63.99.53,1.34-.41,1.82-.61l8.99-3.75.3-17.9c.15.04.3.02.43-.06-1.41,1.6,11.15-4.36,11.15-4.36.74.15,1.24.7,2.12.66.24,1.14.84.71,1.88,1.24l41.77,21.06,19.24,9.81c.53,5.9-.79,11.6.66,16.92.09.35-.1.71,0,.93.19.42.67.19,1.08.41l32.78,17.99c.65.36,1.1.7,1.49.69.35-.01,1.5-.23,1.5-.85l.07-40.27-9.85-5.09c1.11-1.44,7.72-4.24,7.42-5.32.42-.09.8-.38,1.11-.61,1.39-.3,3.47-.99,5.11-1.73,5.18-5.51,11.09-9.64,17.99-12.88s12.94-6.23,20.39-8.01c1.75-.42,4.31.74,6.43,1.3,11.86,3.16,23.5,8.8,31.75,18.18,1.54,1.75,2.72,2.85,4.48,3.92Z"/>
        <path class="cls-1" d="M86.55,184.14c2.62,1.87,5.99,2.84,9.04,4.3l8.58,4.09,17.52,8.47c5.52,2.67,10.88,5.13,16.14,8.06,2.85,1.59,5.5,2.99,8.64,4.19v81.04s-40.06-21.67-40.06-21.67l-29.54-16.3.32-54.34.33-21.38c3.65.92,5.93,3.26,9.03,3.55Z"/>
      </g>
      <path class="cls-1" d="M171.24,262.2c.67,3.72,4.4,12.25,7.89,13.32.15.19.18.59.6.89.12.08-.08.41-.38.24-2.79-1.42-6.51-2.5-9.21-4.84l-.08-14.46c.8,1.33.89,3.23,1.18,4.84Z"/>
    </g>
  </g>
</svg>