<svg viewBox="0 0 30.002 30.002" fill="currentColor" xmlns="http://www.w3.org/2000/svg">
  <path d="M29.982,23.945l-2.56-15.672c-0.376-2.294-2.335-3.959-4.658-3.959H7.237c-2.323,0-4.282,1.665-4.658,3.959L0.02,23.945c-0.134,0.816,0.421,1.588,1.238,1.723c0.82,0.134,1.589-0.422,1.723-1.239L5.54,8.759c0.129-0.792,0.778-1.372,1.565-1.432v7.891H7.022c-0.553,0-1,0.449-1,1c0,0.553,0.447,1,1,1h7.167c0.553,0,1-0.447,1-1c0-0.552-0.447-1-1-1h-0.084V7.314h2v11.902h-0.082c-0.555,0-1,0.448-1,1c0,0.553,0.447,1,1,1h7.166c0.554,0,1-0.447,1-1c0-0.552-0.446-1-1-1h-0.084V7.35c0.689,0.138,1.237,0.686,1.355,1.407l2.56,15.67c0.119,0.735,0.758,1.258,1.479,1.258c0.08,0,0.162-0.006,0.244-0.021C29.561,25.533,30.116,24.762,29.982,23.945z M12.106,15.217h-3V7.314h3V15.217z M18.106,19.217V7.314h3v11.902H18.106z"/>
</svg>
