<svg viewBox="0 0 454.484 454.484" fill="currentColor" xmlns="http://www.w3.org/2000/svg">
  <path d="M451.555,164.505c-3.906-3.904-10.236-3.904-14.143,0c-15.188,15.188-58.267,58.267-73.717,73.717l-73.717-73.717c-3.904-3.903-10.236-3.905-14.143,0c-1.984,1.984-71.498,71.497-73.718,73.717l-73.717-73.717c-3.906-3.904-10.236-3.904-14.143,0c-3.585,3.585-102.099,102.099-111.33,111.33c-3.905,3.905-3.905,10.237,0,14.143c3.907,3.905,10.236,3.904,14.143,0l73.753-73.754l73.718,73.718c1.876,1.875,4.419,2.929,7.071,2.929s5.195-1.054,7.071-2.929l73.717-73.718l73.717,73.718c1.876,1.875,4.419,2.929,7.071,2.929s5.195-1.054,7.071-2.929c7.524-7.524,107.982-107.982,111.294-111.294C455.46,174.743,455.46,168.411,451.555,164.505z"/>
</svg>
